<?xml version="1.0" encoding="UTF-8" standalone="no"?>
<!-- Created with Inkscape (http://www.inkscape.org/) -->

<svg
   width="210mm"
   height="297mm"
   viewBox="0 0 210 297"
   version="1.1"
   id="svg1"
   inkscape:version="1.4 (e7c3feb100, 2024-10-09)"
   sodipodi:docname="other-logos.svg"
   xmlns:inkscape="http://www.inkscape.org/namespaces/inkscape"
   xmlns:sodipodi="http://sodipodi.sourceforge.net/DTD/sodipodi-0.dtd"
   xmlns="http://www.w3.org/2000/svg"
   xmlns:svg="http://www.w3.org/2000/svg">
  <sodipodi:namedview
     id="namedview1"
     pagecolor="#ffffff"
     bordercolor="#666666"
     borderopacity="1.0"
     inkscape:showpageshadow="2"
     inkscape:pageopacity="0.0"
     inkscape:pagecheckerboard="0"
     inkscape:deskcolor="#d1d1d1"
     inkscape:document-units="mm"
     inkscape:zoom="1.2006431"
     inkscape:cx="459.33716"
     inkscape:cy="792.07551"
     inkscape:window-width="2282"
     inkscape:window-height="1735"
     inkscape:window-x="1164"
     inkscape:window-y="286"
     inkscape:window-maximized="0"
     inkscape:current-layer="layer1" />
  <defs
     id="defs1" />
  <g
     inkscape:label="Layer 1"
     inkscape:groupmode="layer"
     id="layer1">
    <path
       id="rect19"
       style="opacity:1;fill:#9d9d9d;fill-opacity:1;fill-rule:evenodd;stroke-width:0.264583px;-inkscape-stroke:none;paint-order:markers fill stroke"
       d="M 94.578723 148.82657 C 92.980851 148.82657 91.409426 148.93132 89.862215 149.1139 A 17.407664 17.407664 0 0 1 89.806405 149.43067 A 17.407664 17.407664 0 0 1 69.308948 163.0655 A 17.407664 17.407664 0 0 1 65.335547 161.71209 C 58.946471 168.7273 55.060205 178.06564 55.060205 188.34561 L 55.060205 209.85954 C 55.060205 231.75295 72.685311 249.37806 94.578723 249.37806 L 116.09266 249.37806 C 137.98607 249.37806 155.61169 231.75295 155.61169 209.85954 L 155.61169 188.34561 C 155.61169 166.4522 137.98607 148.82657 116.09266 148.82657 L 94.578723 148.82657 z " />
    <rect
       style="opacity:1;fill:#808080;fill-rule:evenodd;stroke-width:0.264583px;-inkscape-stroke:none;paint-order:markers fill stroke"
       id="rect18"
       width="116.13394"
       height="116.13394"
       x="-156.13074"
       y="141.03554"
       rx="0.70599997"
       ry="0.70599997" />
    <path
       id="path1"
       style="opacity:0.39015;fill:#000000;fill-rule:evenodd;stroke-width:0.264583px;-inkscape-stroke:none;paint-order:markers fill stroke"
       d="M 53.31971,35.763719 A 39.501312,39.501312 0 0 0 13.81876,75.265182 39.501312,39.501312 0 0 0 53.31971,114.76665 39.501312,39.501312 0 0 0 73.95721,108.88794 39.501312,39.501312 0 0 1 54.9563,75.265182 39.501312,39.501312 0 0 1 73.99752,41.617625 39.501312,39.501312 0 0 0 53.31971,35.763719 Z M 35.244327,59.449092 a 15.816108,15.816108 0 0 1 15.816088,15.81609 15.816108,15.816108 0 0 1 -15.816088,15.81609 15.816108,15.816108 0 0 1 -15.81609,-15.81609 15.816108,15.816108 0 0 1 15.81609,-15.81609 z" />
    <path
       id="path2"
       style="opacity:1;fill:#ff6600;fill-rule:evenodd;stroke-width:0.264583px;-inkscape-stroke:none;paint-order:markers fill stroke"
       d="m 142.28822,33.237783 a 41.02946,41.02946 0 0 0 -39.6789,30.898939 41.02946,41.02946 0 0 0 4.13269,10.130522 41.02946,41.02946 0 0 0 -4.13198,10.129794 41.02946,41.02946 0 0 0 39.67819,30.899652 41.02946,41.02946 0 0 0 39.69989,-31.000255 41.02946,41.02946 0 0 0 -4.10664,-10.117496 41.02946,41.02946 0 0 0 4.11822,-10.200005 41.02946,41.02946 0 0 0 -39.71147,-30.741151 z" />
    <path
       id="path3"
       style="opacity:1;fill:#00ff66;fill-rule:evenodd;stroke-width:0.264583px;-inkscape-stroke:none;paint-order:markers fill stroke"
       d="M 142.28847 33.237764 A 41.02946 41.02946 0 0 0 115.60586 43.244906 A 87.786026 87.786026 0 0 0 168.71063 105.48503 A 41.02946 41.02946 0 0 0 181.98786 84.296663 A 41.02946 41.02946 0 0 0 177.88165 74.178935 A 41.02946 41.02946 0 0 0 181.99974 63.979041 A 41.02946 41.02946 0 0 0 142.28847 33.237764 z " />
    <g
       id="g18"
       transform="translate(-206.37464,-2.6444161)">
      <circle
         style="opacity:1;fill:#606060;fill-opacity:1;fill-rule:evenodd;stroke-width:0.264583px;-inkscape-stroke:none;paint-order:markers fill stroke"
         id="circle7"
         cx="74.594574"
         cy="235.46321"
         r="14.103553" />
      <circle
         style="opacity:1;fill:#606060;fill-opacity:1;fill-rule:evenodd;stroke-width:0.264583px;-inkscape-stroke:none;paint-order:markers fill stroke"
         id="circle8"
         cx="108.31087"
         cy="235.46321"
         r="14.103553" />
      <circle
         style="opacity:1;fill:#606060;fill-opacity:1;fill-rule:evenodd;stroke-width:0.264583px;-inkscape-stroke:none;paint-order:markers fill stroke"
         id="circle9"
         cx="142.02719"
         cy="235.46321"
         r="14.103553" />
      <circle
         style="opacity:1;fill:#606060;fill-opacity:1;fill-rule:evenodd;stroke-width:0.264583px;-inkscape-stroke:none;paint-order:markers fill stroke"
         id="circle11"
         cx="168.03062"
         cy="-74.594574"
         r="14.103553"
         transform="rotate(90)" />
      <circle
         style="opacity:1;fill:#606060;fill-opacity:1;fill-rule:evenodd;stroke-width:0.264583px;-inkscape-stroke:none;paint-order:markers fill stroke"
         id="circle12"
         cx="201.74692"
         cy="-74.594574"
         r="14.103553"
         transform="rotate(90)" />
      <circle
         style="opacity:1;fill:#606060;fill-opacity:1;fill-rule:evenodd;stroke-width:0.264583px;-inkscape-stroke:none;paint-order:markers fill stroke"
         id="circle14"
         cx="108.31087"
         cy="201.74692"
         r="14.103553" />
      <circle
         style="opacity:1;fill:#606060;fill-opacity:1;fill-rule:evenodd;stroke-width:0.264583px;-inkscape-stroke:none;paint-order:markers fill stroke"
         id="circle15"
         cx="142.02719"
         cy="201.74692"
         r="14.103553" />
      <circle
         style="opacity:1;fill:#606060;fill-opacity:1;fill-rule:evenodd;stroke-width:0.264583px;-inkscape-stroke:none;paint-order:markers fill stroke"
         id="circle17"
         cx="108.31087"
         cy="168.03062"
         r="14.103553" />
    </g>
    <g
       id="g26"
       transform="matrix(-1.2100594,-0.2432924,-0.2432924,1.2100594,285.48201,-22.773516)"
       style="stroke-width:0.810192">
      <circle
         style="opacity:1;fill:#606060;fill-opacity:1;fill-rule:evenodd;stroke-width:0.214363px;-inkscape-stroke:none;paint-order:markers fill stroke"
         id="circle19"
         cx="74.594574"
         cy="235.46321"
         r="14.103553" />
      <circle
         style="opacity:1;fill:#606060;fill-opacity:1;fill-rule:evenodd;stroke-width:0.214363px;-inkscape-stroke:none;paint-order:markers fill stroke"
         id="circle20"
         cx="108.31087"
         cy="235.46321"
         r="14.103553" />
      <circle
         style="opacity:1;fill:#606060;fill-opacity:1;fill-rule:evenodd;stroke-width:0.214363px;-inkscape-stroke:none;paint-order:markers fill stroke"
         id="circle21"
         cx="142.02719"
         cy="235.46321"
         r="14.103553" />
      <circle
         style="opacity:1;fill:#606060;fill-opacity:1;fill-rule:evenodd;stroke-width:0.214363px;-inkscape-stroke:none;paint-order:markers fill stroke"
         id="circle22"
         cx="168.03062"
         cy="-74.594574"
         r="14.103553"
         transform="rotate(90)" />
      <circle
         style="opacity:1;fill:#606060;fill-opacity:1;fill-rule:evenodd;stroke-width:0.214363px;-inkscape-stroke:none;paint-order:markers fill stroke"
         id="circle23"
         cx="201.74692"
         cy="-74.594574"
         r="14.103553"
         transform="rotate(90)" />
      <circle
         style="opacity:1;fill:#606060;fill-opacity:1;fill-rule:evenodd;stroke-width:0.214363px;-inkscape-stroke:none;paint-order:markers fill stroke"
         id="circle24"
         cx="108.31087"
         cy="201.74692"
         r="14.103553" />
      <circle
         style="opacity:1;fill:#606060;fill-opacity:1;fill-rule:evenodd;stroke-width:0.214363px;-inkscape-stroke:none;paint-order:markers fill stroke"
         id="circle25"
         cx="142.02719"
         cy="201.74692"
         r="14.103553" />
      <circle
         style="opacity:1;fill:#606060;fill-opacity:1;fill-rule:evenodd;stroke-width:0.214363px;-inkscape-stroke:none;paint-order:markers fill stroke"
         id="circle26"
         cx="108.31087"
         cy="168.03062"
         r="14.103553" />
    </g>
    <rect
       style="opacity:1;fill:#808080;fill-rule:evenodd;stroke-width:0.264583px;-inkscape-stroke:none;paint-order:markers fill stroke"
       id="rect26"
       width="116.13394"
       height="116.13394"
       x="-195.13588"
       y="-31.732983"
       ry="49.803169"
       rx="49.803169" />
    <g
       id="g34"
       transform="matrix(-0.98038066,-0.19711359,-0.19711359,0.98038066,8.8840586,-153.42823)">
      <circle
         style="opacity:1;fill:#606060;fill-opacity:1;fill-rule:evenodd;stroke-width:0.264583px;-inkscape-stroke:none;paint-order:markers fill stroke"
         id="circle27"
         cx="74.594574"
         cy="235.46321"
         r="14.103553" />
      <circle
         style="opacity:1;fill:#606060;fill-opacity:1;fill-rule:evenodd;stroke-width:0.264583px;-inkscape-stroke:none;paint-order:markers fill stroke"
         id="circle28"
         cx="108.31087"
         cy="235.46321"
         r="14.103553" />
      <circle
         style="opacity:1;fill:#606060;fill-opacity:1;fill-rule:evenodd;stroke-width:0.264583px;-inkscape-stroke:none;paint-order:markers fill stroke"
         id="circle29"
         cx="142.02719"
         cy="235.46321"
         r="14.103553" />
      <circle
         style="opacity:1;fill:#606060;fill-opacity:1;fill-rule:evenodd;stroke-width:0.264583px;-inkscape-stroke:none;paint-order:markers fill stroke"
         id="circle30"
         cx="168.03062"
         cy="-74.594574"
         r="14.103553"
         transform="rotate(90)" />
      <circle
         style="opacity:1;fill:#606060;fill-opacity:1;fill-rule:evenodd;stroke-width:0.264583px;-inkscape-stroke:none;paint-order:markers fill stroke"
         id="circle31"
         cx="201.74692"
         cy="-74.594574"
         r="14.103553"
         transform="rotate(90)" />
      <circle
         style="opacity:1;fill:#606060;fill-opacity:1;fill-rule:evenodd;stroke-width:0.264583px;-inkscape-stroke:none;paint-order:markers fill stroke"
         id="circle32"
         cx="108.31087"
         cy="201.74692"
         r="14.103553" />
      <circle
         style="opacity:1;fill:#606060;fill-opacity:1;fill-rule:evenodd;stroke-width:0.264583px;-inkscape-stroke:none;paint-order:markers fill stroke"
         id="circle33"
         cx="142.02719"
         cy="201.74692"
         r="14.103553" />
      <circle
         style="opacity:1;fill:#606060;fill-opacity:1;fill-rule:evenodd;stroke-width:0.264583px;-inkscape-stroke:none;paint-order:markers fill stroke"
         id="circle34"
         cx="108.31087"
         cy="168.03062"
         r="14.103553" />
    </g>
  </g>
</svg>
